<svg width="764" height="669" viewBox="0 0 764 669" fill="none" xmlns="http://www.w3.org/2000/svg">
<path d="M54.9205 522.239C54.2614 520.17 53.375 518.318 52.2614 516.682C51.1705 515.023 49.8636 513.614 48.3409 512.455C46.8182 511.273 45.0795 510.375 43.125 509.761C41.1932 509.148 39.0682 508.841 36.75 508.841C32.8182 508.841 29.2727 509.852 26.1136 511.875C22.9545 513.898 20.4545 516.864 18.6136 520.773C16.7955 524.659 15.8864 529.42 15.8864 535.057C15.8864 540.716 16.8068 545.5 18.6477 549.409C20.4886 553.318 23.0114 556.284 26.2159 558.307C29.4205 560.33 33.0682 561.341 37.1591 561.341C40.9545 561.341 44.2614 560.568 47.0795 559.023C49.9205 557.477 52.1136 555.295 53.6591 552.477C55.2273 549.636 56.0114 546.295 56.0114 542.455L58.7386 542.966H38.7614V534.273H66.2045V542.216C66.2045 548.08 64.9545 553.17 62.4545 557.489C59.9773 561.784 56.5455 565.102 52.1591 567.443C47.7955 569.784 42.7955 570.955 37.1591 570.955C30.8409 570.955 25.2955 569.5 20.5227 566.591C15.7727 563.682 12.0682 559.557 9.40909 554.216C6.75 548.852 5.42045 542.489 5.42045 535.125C5.42045 529.557 6.19318 524.557 7.73864 520.125C9.28409 515.693 11.4545 511.932 14.25 508.841C17.0682 505.727 20.375 503.352 24.1705 501.716C27.9886 500.057 32.1591 499.227 36.6818 499.227C40.4545 499.227 43.9659 499.784 47.2159 500.898C50.4886 502.011 53.3977 503.591 55.9432 505.636C58.5114 507.682 60.6364 510.114 62.3182 512.932C64 515.727 65.1364 518.83 65.7273 522.239H54.9205ZM111.929 548.284V517.636H122.156V570H112.134V560.932H111.588C110.384 563.727 108.452 566.057 105.793 567.92C103.156 569.761 99.8722 570.682 95.9403 570.682C92.5767 570.682 89.5994 569.943 87.0085 568.466C84.4403 566.966 82.4176 564.75 80.9403 561.818C79.4858 558.886 78.7585 555.261 78.7585 550.943V517.636H88.9517V549.716C88.9517 553.284 89.9403 556.125 91.9176 558.239C93.8949 560.352 96.4631 561.409 99.6222 561.409C101.531 561.409 103.429 560.932 105.315 559.977C107.224 559.023 108.804 557.58 110.054 555.648C111.327 553.716 111.952 551.261 111.929 548.284ZM175.091 530.42L165.852 532.057C165.466 530.875 164.852 529.75 164.011 528.682C163.193 527.614 162.08 526.739 160.67 526.057C159.261 525.375 157.5 525.034 155.386 525.034C152.5 525.034 150.091 525.682 148.159 526.977C146.227 528.25 145.261 529.898 145.261 531.92C145.261 533.67 145.909 535.08 147.205 536.148C148.5 537.216 150.591 538.091 153.477 538.773L161.795 540.682C166.614 541.795 170.205 543.511 172.568 545.83C174.932 548.148 176.114 551.159 176.114 554.864C176.114 558 175.205 560.795 173.386 563.25C171.591 565.682 169.08 567.591 165.852 568.977C162.648 570.364 158.932 571.057 154.705 571.057C148.841 571.057 144.057 569.807 140.352 567.307C136.648 564.784 134.375 561.205 133.534 556.568L143.386 555.068C144 557.636 145.261 559.58 147.17 560.898C149.08 562.193 151.568 562.841 154.636 562.841C157.977 562.841 160.648 562.148 162.648 560.761C164.648 559.352 165.648 557.636 165.648 555.614C165.648 553.977 165.034 552.602 163.807 551.489C162.602 550.375 160.75 549.534 158.25 548.966L149.386 547.023C144.5 545.909 140.886 544.136 138.545 541.705C136.227 539.273 135.068 536.193 135.068 532.466C135.068 529.375 135.932 526.67 137.659 524.352C139.386 522.034 141.773 520.227 144.818 518.932C147.864 517.614 151.352 516.955 155.284 516.955C160.943 516.955 165.398 518.182 168.648 520.636C171.898 523.068 174.045 526.33 175.091 530.42ZM211.764 517.636V525.818H183.162V517.636H211.764ZM190.832 505.091H201.026V554.625C201.026 556.602 201.321 558.091 201.912 559.091C202.503 560.068 203.264 560.739 204.196 561.102C205.151 561.443 206.185 561.614 207.298 561.614C208.116 561.614 208.832 561.557 209.446 561.443C210.06 561.33 210.537 561.239 210.878 561.17L212.719 569.591C212.128 569.818 211.287 570.045 210.196 570.273C209.105 570.523 207.741 570.659 206.105 570.682C203.423 570.727 200.923 570.25 198.605 569.25C196.287 568.25 194.412 566.705 192.98 564.614C191.548 562.523 190.832 559.898 190.832 556.739V505.091ZM238.278 571.159C234.96 571.159 231.96 570.545 229.278 569.318C226.597 568.068 224.472 566.261 222.903 563.898C221.358 561.534 220.585 558.636 220.585 555.205C220.585 552.25 221.153 549.818 222.29 547.909C223.426 546 224.96 544.489 226.892 543.375C228.824 542.261 230.983 541.42 233.369 540.852C235.756 540.284 238.188 539.852 240.665 539.557C243.801 539.193 246.347 538.898 248.301 538.67C250.256 538.42 251.676 538.023 252.562 537.477C253.449 536.932 253.892 536.045 253.892 534.818V534.58C253.892 531.602 253.051 529.295 251.369 527.659C249.71 526.023 247.233 525.205 243.938 525.205C240.506 525.205 237.801 525.966 235.824 527.489C233.869 528.989 232.517 530.659 231.767 532.5L222.188 530.318C223.324 527.136 224.983 524.568 227.165 522.614C229.369 520.636 231.903 519.205 234.767 518.318C237.631 517.409 240.642 516.955 243.801 516.955C245.892 516.955 248.108 517.205 250.449 517.705C252.813 518.182 255.017 519.068 257.062 520.364C259.131 521.659 260.824 523.511 262.142 525.92C263.46 528.307 264.119 531.409 264.119 535.227V570H254.165V562.841H253.756C253.097 564.159 252.108 565.455 250.79 566.727C249.472 568 247.778 569.057 245.71 569.898C243.642 570.739 241.165 571.159 238.278 571.159ZM240.494 562.977C243.313 562.977 245.722 562.42 247.722 561.307C249.744 560.193 251.278 558.739 252.324 556.943C253.392 555.125 253.926 553.182 253.926 551.114V544.364C253.563 544.727 252.858 545.068 251.812 545.386C250.79 545.682 249.619 545.943 248.301 546.17C246.983 546.375 245.699 546.568 244.449 546.75C243.199 546.909 242.153 547.045 241.312 547.159C239.335 547.409 237.528 547.83 235.892 548.42C234.278 549.011 232.983 549.864 232.006 550.977C231.051 552.068 230.574 553.523 230.574 555.341C230.574 557.864 231.506 559.773 233.369 561.068C235.233 562.341 237.608 562.977 240.494 562.977ZM320.616 517.636L301.628 570H290.719L271.696 517.636H282.639L295.901 557.932H296.446L309.673 517.636H320.616ZM350.472 571.057C345.563 571.057 341.278 569.932 337.619 567.682C333.96 565.432 331.119 562.284 329.097 558.239C327.074 554.193 326.062 549.466 326.062 544.057C326.062 538.625 327.074 533.875 329.097 529.807C331.119 525.739 333.96 522.58 337.619 520.33C341.278 518.08 345.563 516.955 350.472 516.955C355.381 516.955 359.665 518.08 363.324 520.33C366.983 522.58 369.824 525.739 371.847 529.807C373.869 533.875 374.881 538.625 374.881 544.057C374.881 549.466 373.869 554.193 371.847 558.239C369.824 562.284 366.983 565.432 363.324 567.682C359.665 569.932 355.381 571.057 350.472 571.057ZM350.506 562.5C353.688 562.5 356.324 561.659 358.415 559.977C360.506 558.295 362.051 556.057 363.051 553.261C364.074 550.466 364.585 547.386 364.585 544.023C364.585 540.682 364.074 537.614 363.051 534.818C362.051 532 360.506 529.739 358.415 528.034C356.324 526.33 353.688 525.477 350.506 525.477C347.301 525.477 344.642 526.33 342.528 528.034C340.438 529.739 338.881 532 337.858 534.818C336.858 537.614 336.358 540.682 336.358 544.023C336.358 547.386 336.858 550.466 337.858 553.261C338.881 556.057 340.438 558.295 342.528 559.977C344.642 561.659 347.301 562.5 350.506 562.5ZM412.483 570V500.182H437.369C442.801 500.182 447.301 501.17 450.869 503.148C454.438 505.125 457.108 507.83 458.881 511.261C460.653 514.67 461.54 518.511 461.54 522.784C461.54 527.08 460.642 530.943 458.847 534.375C457.074 537.784 454.392 540.489 450.801 542.489C447.233 544.466 442.744 545.455 437.335 545.455H420.222V536.523H436.381C439.813 536.523 442.597 535.932 444.733 534.75C446.869 533.545 448.438 531.909 449.438 529.841C450.438 527.773 450.938 525.42 450.938 522.784C450.938 520.148 450.438 517.807 449.438 515.761C448.438 513.716 446.858 512.114 444.699 510.955C442.563 509.795 439.744 509.216 436.244 509.216H423.017V570H412.483ZM487.841 571.159C484.523 571.159 481.523 570.545 478.841 569.318C476.159 568.068 474.034 566.261 472.466 563.898C470.92 561.534 470.148 558.636 470.148 555.205C470.148 552.25 470.716 549.818 471.852 547.909C472.989 546 474.523 544.489 476.455 543.375C478.386 542.261 480.545 541.42 482.932 540.852C485.318 540.284 487.75 539.852 490.227 539.557C493.364 539.193 495.909 538.898 497.864 538.67C499.818 538.42 501.239 538.023 502.125 537.477C503.011 536.932 503.455 536.045 503.455 534.818V534.58C503.455 531.602 502.614 529.295 500.932 527.659C499.273 526.023 496.795 525.205 493.5 525.205C490.068 525.205 487.364 525.966 485.386 527.489C483.432 528.989 482.08 530.659 481.33 532.5L471.75 530.318C472.886 527.136 474.545 524.568 476.727 522.614C478.932 520.636 481.466 519.205 484.33 518.318C487.193 517.409 490.205 516.955 493.364 516.955C495.455 516.955 497.67 517.205 500.011 517.705C502.375 518.182 504.58 519.068 506.625 520.364C508.693 521.659 510.386 523.511 511.705 525.92C513.023 528.307 513.682 531.409 513.682 535.227V570H503.727V562.841H503.318C502.659 564.159 501.67 565.455 500.352 566.727C499.034 568 497.341 569.057 495.273 569.898C493.205 570.739 490.727 571.159 487.841 571.159ZM490.057 562.977C492.875 562.977 495.284 562.42 497.284 561.307C499.307 560.193 500.841 558.739 501.886 556.943C502.955 555.125 503.489 553.182 503.489 551.114V544.364C503.125 544.727 502.42 545.068 501.375 545.386C500.352 545.682 499.182 545.943 497.864 546.17C496.545 546.375 495.261 546.568 494.011 546.75C492.761 546.909 491.716 547.045 490.875 547.159C488.898 547.409 487.091 547.83 485.455 548.42C483.841 549.011 482.545 549.864 481.568 550.977C480.614 552.068 480.136 553.523 480.136 555.341C480.136 557.864 481.068 559.773 482.932 561.068C484.795 562.341 487.17 562.977 490.057 562.977ZM527.259 570V517.636H537.111V525.955H537.656C538.611 523.136 540.293 520.92 542.702 519.307C545.134 517.67 547.884 516.852 550.952 516.852C551.588 516.852 552.338 516.875 553.202 516.92C554.088 516.966 554.781 517.023 555.281 517.091V526.841C554.872 526.727 554.145 526.602 553.099 526.466C552.054 526.307 551.009 526.227 549.963 526.227C547.554 526.227 545.406 526.739 543.52 527.761C541.656 528.761 540.179 530.159 539.088 531.955C537.997 533.727 537.452 535.75 537.452 538.023V570H527.259ZM564.102 570V517.636H573.955V525.955H574.5C575.455 523.136 577.136 520.92 579.545 519.307C581.977 517.67 584.727 516.852 587.795 516.852C588.432 516.852 589.182 516.875 590.045 516.92C590.932 516.966 591.625 517.023 592.125 517.091V526.841C591.716 526.727 590.989 526.602 589.943 526.466C588.898 526.307 587.852 526.227 586.807 526.227C584.398 526.227 582.25 526.739 580.364 527.761C578.5 528.761 577.023 530.159 575.932 531.955C574.841 533.727 574.295 535.75 574.295 538.023V570H564.102ZM621.639 571.057C616.48 571.057 612.037 569.955 608.31 567.75C604.605 565.523 601.741 562.398 599.719 558.375C597.719 554.33 596.719 549.591 596.719 544.159C596.719 538.795 597.719 534.068 599.719 529.977C601.741 525.886 604.56 522.693 608.173 520.398C611.81 518.102 616.06 516.955 620.923 516.955C623.878 516.955 626.741 517.443 629.514 518.42C632.287 519.398 634.776 520.932 636.98 523.023C639.185 525.114 640.923 527.83 642.196 531.17C643.469 534.489 644.105 538.523 644.105 543.273V546.886H602.48V539.25H634.116C634.116 536.568 633.571 534.193 632.48 532.125C631.389 530.034 629.855 528.386 627.878 527.182C625.923 525.977 623.628 525.375 620.991 525.375C618.128 525.375 615.628 526.08 613.491 527.489C611.378 528.875 609.741 530.693 608.582 532.943C607.446 535.17 606.878 537.591 606.878 540.205V546.17C606.878 549.67 607.491 552.648 608.719 555.102C609.969 557.557 611.707 559.432 613.935 560.727C616.162 562 618.764 562.636 621.741 562.636C623.673 562.636 625.435 562.364 627.026 561.818C628.616 561.25 629.991 560.409 631.151 559.295C632.31 558.182 633.196 556.807 633.81 555.17L643.457 556.909C642.685 559.75 641.298 562.239 639.298 564.375C637.321 566.489 634.832 568.136 631.832 569.318C628.855 570.477 625.457 571.057 621.639 571.057ZM655.415 570V517.636H665.608V570H655.415ZM660.562 509.557C658.79 509.557 657.267 508.966 655.994 507.784C654.744 506.58 654.119 505.148 654.119 503.489C654.119 501.807 654.744 500.375 655.994 499.193C657.267 497.989 658.79 497.386 660.562 497.386C662.335 497.386 663.847 497.989 665.097 499.193C666.369 500.375 667.006 501.807 667.006 503.489C667.006 505.148 666.369 506.58 665.097 507.784C663.847 508.966 662.335 509.557 660.562 509.557ZM679.321 570V517.636H689.173V525.955H689.719C690.673 523.136 692.355 520.92 694.764 519.307C697.196 517.67 699.946 516.852 703.014 516.852C703.651 516.852 704.401 516.875 705.264 516.92C706.151 516.966 706.844 517.023 707.344 517.091V526.841C706.935 526.727 706.207 526.602 705.162 526.466C704.116 526.307 703.071 526.227 702.026 526.227C699.616 526.227 697.469 526.739 695.582 527.761C693.719 528.761 692.241 530.159 691.151 531.955C690.06 533.727 689.514 535.75 689.514 538.023V570H679.321ZM730.935 571.159C727.616 571.159 724.616 570.545 721.935 569.318C719.253 568.068 717.128 566.261 715.56 563.898C714.014 561.534 713.241 558.636 713.241 555.205C713.241 552.25 713.81 549.818 714.946 547.909C716.082 546 717.616 544.489 719.548 543.375C721.48 542.261 723.639 541.42 726.026 540.852C728.412 540.284 730.844 539.852 733.321 539.557C736.457 539.193 739.003 538.898 740.957 538.67C742.912 538.42 744.332 538.023 745.219 537.477C746.105 536.932 746.548 536.045 746.548 534.818V534.58C746.548 531.602 745.707 529.295 744.026 527.659C742.366 526.023 739.889 525.205 736.594 525.205C733.162 525.205 730.457 525.966 728.48 527.489C726.526 528.989 725.173 530.659 724.423 532.5L714.844 530.318C715.98 527.136 717.639 524.568 719.821 522.614C722.026 520.636 724.56 519.205 727.423 518.318C730.287 517.409 733.298 516.955 736.457 516.955C738.548 516.955 740.764 517.205 743.105 517.705C745.469 518.182 747.673 519.068 749.719 520.364C751.787 521.659 753.48 523.511 754.798 525.92C756.116 528.307 756.776 531.409 756.776 535.227V570H746.821V562.841H746.412C745.753 564.159 744.764 565.455 743.446 566.727C742.128 568 740.435 569.057 738.366 569.898C736.298 570.739 733.821 571.159 730.935 571.159ZM733.151 562.977C735.969 562.977 738.378 562.42 740.378 561.307C742.401 560.193 743.935 558.739 744.98 556.943C746.048 555.125 746.582 553.182 746.582 551.114V544.364C746.219 544.727 745.514 545.068 744.469 545.386C743.446 545.682 742.276 545.943 740.957 546.17C739.639 546.375 738.355 546.568 737.105 546.75C735.855 546.909 734.81 547.045 733.969 547.159C731.991 547.409 730.185 547.83 728.548 548.42C726.935 549.011 725.639 549.864 724.662 550.977C723.707 552.068 723.23 553.523 723.23 555.341C723.23 557.864 724.162 559.773 726.026 561.068C727.889 562.341 730.264 562.977 733.151 562.977Z" fill="#051016"/>
<rect y="635" width="206" height="14" fill="#CCAE40"/>
<rect x="558" y="635" width="206" height="14" fill="#CCAE40"/>
<path d="M266.764 625.273V658H259.844V625.273H266.764ZM282.357 625.273H290.89L299.903 647.261H300.286L309.299 625.273H317.833V658H311.121V636.699H310.849L302.38 657.84H297.81L289.34 636.619H289.068V658H282.357V625.273ZM363.508 641.636C363.508 645.205 362.832 648.241 361.479 650.745C360.136 653.249 358.304 655.161 355.981 656.482C353.67 657.792 351.07 658.447 348.183 658.447C345.275 658.447 342.665 657.787 340.353 656.466C338.041 655.145 336.214 653.233 334.872 650.729C333.529 648.225 332.858 645.195 332.858 641.636C332.858 638.067 333.529 635.031 334.872 632.528C336.214 630.024 338.041 628.117 340.353 626.807C342.665 625.486 345.275 624.825 348.183 624.825C351.07 624.825 353.67 625.486 355.981 626.807C358.304 628.117 360.136 630.024 361.479 632.528C362.832 635.031 363.508 638.067 363.508 641.636ZM356.493 641.636C356.493 639.325 356.147 637.375 355.454 635.788C354.772 634.2 353.808 632.996 352.562 632.176C351.315 631.356 349.856 630.946 348.183 630.946C346.511 630.946 345.051 631.356 343.805 632.176C342.558 632.996 341.589 634.2 340.896 635.788C340.214 637.375 339.874 639.325 339.874 641.636C339.874 643.948 340.214 645.898 340.896 647.485C341.589 649.072 342.558 650.276 343.805 651.097C345.051 651.917 346.511 652.327 348.183 652.327C349.856 652.327 351.315 651.917 352.562 651.097C353.808 650.276 354.772 649.072 355.454 647.485C356.147 645.898 356.493 643.948 356.493 641.636ZM345.738 622.109L349.126 614.838H355.422L350.548 622.109H345.738ZM382.601 625.273L390.511 650.138H390.814L398.741 625.273H406.411L395.129 658H386.212L374.914 625.273H382.601ZM420.25 658V625.273H442.303V630.978H427.17V638.776H441.168V644.481H427.17V652.295H442.367V658H420.25ZM464.623 625.273V658H457.704V625.273H464.623ZM497.97 634.685C497.842 633.396 497.294 632.395 496.324 631.681C495.355 630.967 494.039 630.61 492.377 630.61C491.248 630.61 490.294 630.77 489.517 631.089C488.739 631.398 488.142 631.83 487.727 632.384C487.322 632.938 487.12 633.566 487.12 634.27C487.098 634.855 487.221 635.367 487.487 635.804C487.764 636.24 488.142 636.619 488.622 636.938C489.101 637.247 489.655 637.519 490.284 637.753C490.912 637.977 491.583 638.169 492.297 638.328L495.237 639.032C496.665 639.351 497.975 639.777 499.169 640.31C500.362 640.843 501.395 641.498 502.269 642.276C503.142 643.053 503.819 643.969 504.298 645.024C504.788 646.079 505.039 647.288 505.049 648.652C505.039 650.654 504.527 652.391 503.515 653.861C502.514 655.321 501.065 656.455 499.169 657.265C497.283 658.064 495.008 658.463 492.345 658.463C489.703 658.463 487.402 658.059 485.442 657.249C483.492 656.439 481.969 655.241 480.871 653.653C479.785 652.055 479.215 650.079 479.161 647.725H485.857C485.932 648.822 486.246 649.738 486.8 650.473C487.365 651.198 488.116 651.746 489.053 652.119C490.001 652.482 491.072 652.663 492.265 652.663C493.437 652.663 494.454 652.492 495.317 652.151C496.191 651.81 496.867 651.336 497.347 650.729C497.826 650.122 498.066 649.424 498.066 648.636C498.066 647.901 497.848 647.283 497.411 646.782C496.985 646.281 496.356 645.855 495.525 645.504C494.705 645.152 493.698 644.832 492.505 644.545L488.941 643.65C486.182 642.979 484.003 641.929 482.405 640.502C480.807 639.074 480.014 637.151 480.024 634.733C480.014 632.751 480.541 631.02 481.606 629.539C482.682 628.059 484.158 626.903 486.033 626.072C487.908 625.241 490.039 624.825 492.425 624.825C494.854 624.825 496.974 625.241 498.785 626.072C500.607 626.903 502.024 628.059 503.036 629.539C504.048 631.02 504.57 632.735 504.602 634.685H497.97Z" fill="#CCAE40"/>
<path d="M328.5 194.5L215 276.5V435.5H328.5V194.5Z" fill="#CCAE40"/>
<path d="M328.5 194.5V69L424 0V435H410.5V254.5L392.5 242V435H378.5V231.5L361 219.5V435H349V208.5L328.5 194.5Z" fill="#CCAE40"/>
<path d="M456 22.5L443 13.5L442 435.5H456V22.5Z" fill="#CCAE40"/>
<path d="M475 435.5V36.5L487 45V435.5H475Z" fill="#CCAE40"/>
<path d="M519 68.4976L506 60.5L505 435.5H519V68.4976Z" fill="#CCAE40"/>
<path d="M538 435.5V80.9384L550 88.4917V435.5H538Z" fill="#CCAE40"/>
</svg>
